<?xml version="1.0" encoding="utf-8"?>
<!-- Generator: Adobe Illustrator 19.2.1, SVG Export Plug-In . SVG Version: 6.00 Build 0)  -->
<!DOCTYPE svg PUBLIC "-//W3C//DTD SVG 1.1//EN" "http://www.w3.org/Graphics/SVG/1.1/DTD/svg11.dtd">
<svg version="1.1" id="Layer_1" xmlns="http://www.w3.org/2000/svg" xmlns:xlink="http://www.w3.org/1999/xlink" x="0px" y="0px"
	 viewBox="0 0 320 200" style="enable-background:new 0 0 320 200;" xml:space="preserve">
<style type="text/css">
	.st0{fill:#FFFFFF;stroke:#58595B;stroke-width:0.4081;stroke-miterlimit:10;}
	.st1{fill:#58595B;}
	.st2{fill:none;stroke:#58595B;stroke-width:0.3113;stroke-miterlimit:10;}
	.st3{fill:none;}
	.st4{fill:#414042;}
	.st5{font-family:'Avenir-Book';}
	.st6{font-size:16.2208px;}
	.st7{fill:none;stroke:#58595B;stroke-width:0.3247;stroke-miterlimit:10;}
	.st8{font-family:'Helvetica-Bold';}
	.st9{font-size:50.6056px;}
</style>
<g>
	<path class="st0" d="M105.5,59.7c0,9.5,2.4,18.4,6.8,26.1c-9.2,16.4-26.7,27.4-46.8,27.4c-29.6,0-53.6-24-53.6-53.6S36,6,65.6,6
		c20.1,0,37.6,11,46.8,27.4C108.1,41.3,105.5,50.2,105.5,59.7z"/>
	<path class="st0" d="M118.9,59.7c0,9.5-2.4,18.4-6.8,26.1c-4.4-7.7-6.8-16.6-6.8-26.1s2.4-18.4,6.8-26.2
		C116.4,41.3,118.9,50.2,118.9,59.7z"/>
	<path class="st0" d="M199.5,59.7c0,9.3,2.4,18,6.6,25.6c-9.1,16.6-26.8,28-47,28c-20.1,0-37.6-11-46.8-27.4
		c4.4-7.7,6.8-16.6,6.8-26.1s-2.4-18.4-6.8-26.2c9.2-16.4,26.7-27.4,46.8-27.4c20.3,0,38,11.3,47,28
		C201.8,41.7,199.5,50.5,199.5,59.7z"/>
	<path class="st0" d="M212.5,59.7c0,9.3-2.4,18-6.6,25.6c-4.1-7.6-6.6-16.3-6.6-25.6s2.4-18,6.6-25.6
		C210.1,41.7,212.5,50.5,212.5,59.7z"/>
	<path class="st0" d="M306.6,59.7c0,29.6-24,53.6-53.6,53.6c-20.3,0-38-11.3-47-28c4.1-7.6,6.6-16.3,6.6-25.6s-2.4-18-6.6-25.6
		c9.1-16.7,26.8-28,47-28C282.6,6.1,306.6,30.1,306.6,59.7z"/>
	<circle class="st1" cx="64.7" cy="95.1" r="2.3"/>
	<line class="st2" x1="64.7" y1="95.7" x2="64.7" y2="141.7"/>
	<rect x="11.9" y="150.2" class="st3" width="106.9" height="17"/>
	<text transform="matrix(1 0 0 1 17.0578 162.454)" class="st4 st5 st6">Data Analysis</text>
	<circle class="st1" cx="159.5" cy="95.1" r="2.3"/>
	<line class="st7" x1="159.4" y1="95.7" x2="159.4" y2="165.9"/>
	<g>
		<rect x="76.7" y="177" class="st3" width="164.6" height="17"/>
		<text transform="matrix(1 0 0 1 85.2863 189.2675)" class="st4 st5 st6">Engaging Narratives</text>
	</g>
	<circle class="st1" cx="254" cy="95.1" r="2.3"/>
	<line class="st2" x1="254" y1="95.7" x2="254" y2="141.7"/>
	<g>
		<rect x="201.2" y="150.2" class="st3" width="106.9" height="17"/>
		<text transform="matrix(1 0 0 1 229.2688 162.454)" class="st4 st5 st6">Design</text>
	</g>
	<g>
		<g>
			<path class="st1" d="M82.4,55.1L66.4,44.2L50.3,55.1l16.1,11L82.4,55.1z M66.4,68.6l-14.2-9.3l-1.9,1.9l16.1,11l16.1-11l-1.9-2
				L66.4,68.6z M66.4,74.7l-14.2-9.3l-1.9,1.9l16.1,11l16.1-11l-1.9-2L66.4,74.7z"/>
		</g>
	</g>
	<rect x="133.4" y="38.9" class="st3" width="66.1" height="58.2"/>
	<text transform="matrix(1 0 0 1 133.3591 75.2489)" class="st1 st8 st9">“</text>
	<text transform="matrix(1 0 0 1 133.3591 93.1732)" class="st1 st8 st9">  ’’</text>
	<rect x="239" y="46.9" class="st1" width="16.2" height="24.5"/>
	<rect x="256.3" y="46.9" class="st1" width="12.9" height="12.2"/>
	<rect x="256.3" y="60.1" class="st1" width="5.1" height="5.1"/>
	<rect x="262.4" y="60.1" class="st1" width="6.8" height="11.3"/>
	<rect x="256.3" y="66.3" class="st1" width="5.1" height="5.1"/>
</g>
</svg>
