<?xml version="1.0" encoding="utf-8"?>
<!-- Generator: Adobe Illustrator 19.2.1, SVG Export Plug-In . SVG Version: 6.00 Build 0)  -->
<!DOCTYPE svg PUBLIC "-//W3C//DTD SVG 1.1//EN" "http://www.w3.org/Graphics/SVG/1.1/DTD/svg11.dtd">
<svg version="1.1" id="Layer_1" xmlns="http://www.w3.org/2000/svg" xmlns:xlink="http://www.w3.org/1999/xlink" x="0px" y="0px"
	 viewBox="0 0 212 134" style="enable-background:new 0 0 212 134;" xml:space="preserve">
<style type="text/css">
	.st0{fill-rule:evenodd;clip-rule:evenodd;fill:#FFFFFF;stroke:#58595B;stroke-width:0.25;stroke-miterlimit:10;}
	.st1{fill-rule:evenodd;clip-rule:evenodd;fill:#58595B;}
	.st2{fill:none;stroke:#58595B;stroke-width:0.1907;stroke-miterlimit:10;}
	.st3{fill-rule:evenodd;clip-rule:evenodd;fill:none;}
	.st4{fill:#414042;}
	.st5{font-family:'Avenir-Book';}
	.st6{font-size:8px;}
	.st7{fill:none;stroke:#58595B;stroke-width:0.1989;stroke-miterlimit:10;}
	.st8{fill:none;}
	.st9{fill:#58595B;}
	.st10{font-family:'Helvetica-Bold';}
	.st11{font-size:31px;}
</style>
<path class="st0" d="M70.9,45c0,5.8,1.5,11.3,4.2,16c-5.6,10-16.4,16.8-28.7,16.8c-18.1,0-32.8-14.7-32.8-32.8
	c0-18.1,14.7-32.8,32.8-32.8c12.3,0,23,6.8,28.7,16.8C72.4,33.8,70.9,39.2,70.9,45z"/>
<path class="st0" d="M79,45c0,5.8-1.5,11.3-4.2,16c-2.7-4.7-4.2-10.2-4.2-16c0-5.8,1.5-11.3,4.2-16C77.5,33.8,79,39.2,79,45z"/>
<path class="st0" d="M128.4,45c0,5.7,1.5,11,4,15.7c-5.6,10.2-16.4,17.1-28.8,17.1c-12.3,0-23-6.8-28.7-16.8
	c2.7-4.7,4.2-10.2,4.2-16c0-5.8-1.5-11.3-4.2-16c5.6-10,16.4-16.8,28.7-16.8c12.4,0,23.3,6.9,28.8,17.1
	C129.8,34,128.4,39.4,128.4,45z"/>
<path class="st0" d="M136.4,45c0,5.7-1.5,11-4,15.7c-2.5-4.7-4-10-4-15.7c0-5.7,1.5-11,4-15.7C134.9,34,136.4,39.4,136.4,45z"/>
<path class="st0" d="M194,45c0,18.1-14.7,32.8-32.8,32.8c-12.4,0-23.3-6.9-28.8-17.1c2.5-4.7,4-10,4-15.7c0-5.7-1.5-11-4-15.7
	c5.6-10.2,16.4-17.1,28.8-17.1C179.3,12.2,194,26.9,194,45z"/>
<circle class="st1" cx="45.9" cy="66.7" r="1.4"/>
<line class="st2" x1="45.9" y1="67" x2="45.9" y2="95.2"/>
<rect x="13.5" y="100.4" class="st3" width="65.5" height="8.4"/>
<text transform="matrix(1 0 0 1 22.4299 106.4907)" class="st4 st5 st6">Data Analysis</text>
<circle class="st1" cx="103.9" cy="66.7" r="1.4"/>
<line class="st7" x1="103.8" y1="67" x2="103.8" y2="110.1"/>
<g>
	<rect x="59.6" y="115.3" class="st8" width="89" height="8.4"/>
	<text transform="matrix(1 0 0 1 67.7478 121.3931)" class="st4 st5 st6">Engaging Narratives</text>
</g>
<circle class="st1" cx="161.8" cy="66.7" r="1.4"/>
<line class="st2" x1="161.8" y1="67" x2="161.8" y2="95.2"/>
<g>
	<rect x="129.5" y="100.4" class="st8" width="65.5" height="8.4"/>
	<text transform="matrix(1 0 0 1 149.6824 106.4907)" class="st4 st5 st6">Design</text>
</g>
<g>
	<g>
		<path class="st1" d="M56.7,42.2l-9.9-6.7L37,42.2l9.9,6.7L56.7,42.2z M46.9,50.5l-8.7-5.7L37,45.9l9.9,6.7l9.9-6.7l-1.2-1.2
			L46.9,50.5z M46.9,54.2l-8.7-5.7L37,49.7l9.9,6.7l9.9-6.7l-1.2-1.2L46.9,54.2z"/>
	</g>
</g>
<rect x="87.9" y="32.2" class="st3" width="145" height="48.2"/>
<text transform="matrix(1 0 0 1 87.8996 54.5357)"><tspan x="0" y="0" class="st9 st10 st11">“</tspan><tspan x="0" y="11" class="st9 st10 st11">  ’’</tspan></text>
<rect x="152.6" y="37.2" class="st1" width="10" height="15"/>
<rect x="163.2" y="37.2" class="st1" width="7.9" height="7.5"/>
<rect x="163.2" y="45.3" class="st1" width="3.2" height="3.2"/>
<rect x="166.9" y="45.3" class="st1" width="4.2" height="6.9"/>
<rect x="163.2" y="49" class="st1" width="3.2" height="3.2"/>
</svg>
