<?xml version="1.0" encoding="utf-8"?>
<!-- Generator: Adobe Illustrator 19.2.1, SVG Export Plug-In . SVG Version: 6.00 Build 0)  -->
<!DOCTYPE svg PUBLIC "-//W3C//DTD SVG 1.1//EN" "http://www.w3.org/Graphics/SVG/1.1/DTD/svg11.dtd">
<svg version="1.1" id="Layer_1" xmlns="http://www.w3.org/2000/svg" xmlns:xlink="http://www.w3.org/1999/xlink" x="0px" y="0px"
	 viewBox="0 0 400 275" style="enable-background:new 0 0 400 275;" xml:space="preserve">
<style type="text/css">
	.st0{fill-rule:evenodd;clip-rule:evenodd;fill:#FFFFFF;stroke:#58595B;stroke-width:0.5032;stroke-miterlimit:10;}
	.st1{fill-rule:evenodd;clip-rule:evenodd;fill:#58595B;}
	.st2{fill:none;stroke:#58595B;stroke-width:0.3838;stroke-miterlimit:10;}
	.st3{fill-rule:evenodd;clip-rule:evenodd;fill:none;}
	.st4{fill:#414042;}
	.st5{font-family:'Avenir-Book';}
	.st6{font-size:20px;}
	.st7{fill:none;stroke:#58595B;stroke-width:0.4003;stroke-miterlimit:10;}
	.st8{fill:none;}
	.st9{fill:#58595B;}
	.st10{font-family:'Helvetica-Bold';}
	.st11{font-size:62.3959px;}
</style>
<g>
	<path class="st0" d="M132.8,87.8c0,11.7,3,22.7,8.4,32.2c-11.3,20.2-32.9,33.8-57.7,33.8c-36.5,0-66.1-29.6-66.1-66.1
		c0-36.5,29.6-66.1,66.1-66.1c24.8,0,46.4,13.6,57.7,33.8C135.9,65.1,132.8,76.1,132.8,87.8z"/>
	<path class="st0" d="M149.3,87.8c0,11.7-3,22.7-8.4,32.2c-5.4-9.5-8.4-20.5-8.4-32.2c0-11.7,3-22.7,8.4-32.3
		C146.2,65.1,149.3,76.1,149.3,87.8z"/>
	<path class="st0" d="M248.6,87.8c0,11.5,2.9,22.2,8.1,31.6c-11.2,20.5-33,34.5-58,34.5c-24.8,0-46.4-13.6-57.7-33.8
		c5.4-9.5,8.4-20.5,8.4-32.2c0-11.7-3-22.7-8.4-32.3c11.3-20.2,32.9-33.8,57.7-33.8c25,0,46.8,13.9,58,34.5
		C251.5,65.6,248.6,76.4,248.6,87.8z"/>
	<path class="st0" d="M264.7,87.8c0,11.5-2.9,22.2-8.1,31.6c-5.1-9.4-8.1-20.1-8.1-31.6c0-11.5,2.9-22.2,8.1-31.6
		C261.7,65.6,264.7,76.4,264.7,87.8z"/>
	<path class="st0" d="M380.7,87.8c0,36.5-29.6,66.1-66.1,66.1c-25,0-46.8-13.9-58-34.5c5.1-9.4,8.1-20.1,8.1-31.6
		c0-11.5-2.9-22.2-8.1-31.6c11.2-20.6,33-34.5,58-34.5C351.1,21.7,380.7,51.3,380.7,87.8z"/>
	<circle class="st1" cx="82.5" cy="131.4" r="2.8"/>
	<line class="st2" x1="82.5" y1="132.1" x2="82.5" y2="188.9"/>
	<rect x="17.4" y="199.3" class="st3" width="131.8" height="20.9"/>
	<text transform="matrix(1 0 0 1 23.7041 214.454)" class="st4 st5 st6">Data Analysis</text>
	<circle class="st1" cx="199.3" cy="131.4" r="2.8"/>
	<line class="st7" x1="199.2" y1="132.1" x2="199.2" y2="218.7"/>
	<g>
		<rect x="97.3" y="232.4" class="st8" width="202.9" height="20.9"/>
		<text transform="matrix(1 0 0 1 107.83 247.516)" class="st4 st5 st6">Engaging Narratives</text>
	</g>
	<circle class="st1" cx="315.8" cy="131.4" r="2.8"/>
	<line class="st2" x1="315.8" y1="132.1" x2="315.8" y2="188.9"/>
	<g>
		<rect x="250.7" y="199.3" class="st8" width="131.8" height="20.9"/>
		<text transform="matrix(1 0 0 1 285.357 214.454)" class="st4 st5 st6">Design</text>
	</g>
	<g>
		<g>
			<path class="st1" d="M104.3,82.1L84.5,68.6L64.7,82.1l19.8,13.6L104.3,82.1z M84.5,98.7L67,87.2l-2.3,2.4l19.8,13.6l19.8-13.6
				l-2.4-2.5L84.5,98.7z M84.5,106.2L67,94.7l-2.3,2.4l19.8,13.6l19.8-13.6l-2.4-2.5L84.5,106.2z"/>
		</g>
	</g>
	<rect x="167.1" y="62.1" class="st3" width="81.5" height="71.7"/>
	<text transform="matrix(1 0 0 1 167.1021 106.9325)"><tspan x="0" y="0" class="st9 st10 st11">“</tspan><tspan x="0" y="22.1" class="st9 st10 st11">  ’’</tspan></text>
	<rect x="297.4" y="72" class="st1" width="20" height="30.2"/>
	<rect x="318.7" y="72" class="st1" width="15.9" height="15.1"/>
	<rect x="318.7" y="88.3" class="st1" width="6.3" height="6.3"/>
	<rect x="326.2" y="88.3" class="st1" width="8.4" height="13.9"/>
	<rect x="318.7" y="95.9" class="st1" width="6.3" height="6.3"/>
</g>
</svg>
